<svg width="800" height="800" viewBox="0 0 800 800" fill="none" xmlns="http://www.w3.org/2000/svg">
<path d="M726.097 107.74C687.697 74.0107 637.946 55.4594 585.968 55.4594C526.141 55.4594 467.265 79.9783 424.411 122.746L407.524 139.567C403.459 143.632 396.541 143.632 392.454 139.567L370.249 117.427C329.297 76.5621 274.832 54.054 216.908 54.054C160.324 54.054 106.768 75.6756 66.1405 114.897C25.7081 153.924 3.2 207.589 2.72432 265.989C2.22702 327.049 26.4 386.486 69.0378 429.038L377.189 736.497C383.308 742.595 391.416 745.946 400 745.946C408.584 745.946 416.692 742.595 422.811 736.497L736.454 423.567C778.659 381.449 801.773 323.135 799.892 263.589C797.968 203.178 771.741 147.849 726.097 107.74ZM721.189 408.259L407.546 721.189C403.481 725.254 396.519 725.254 392.476 721.189L84.3027 413.73C45.7297 375.265 23.8919 321.47 24.3459 266.184C24.7784 213.622 44.9513 165.427 81.1459 130.465C117.73 95.135 165.946 75.6756 216.908 75.6756C269.081 75.6756 318.119 95.9567 355.005 132.757L377.189 154.897C389.405 167.092 410.595 167.092 422.811 154.897L439.676 138.076C478.508 99.3296 531.849 77.1026 585.968 77.1026C632.692 77.1026 677.384 93.7512 711.827 124C752.951 160.108 776.541 209.924 778.27 264.281C780 318.659 759.741 369.795 721.189 408.259Z" fill="white"/>
</svg>
